<!--?xml version="1.0" standalone="no"?-->              <svg id="sw-js-blob-svg" viewBox="0 0 100 100" xmlns="http://www.w3.org/2000/svg">                    <defs>                         <linearGradient id="sw-gradient" x1="0" x2="1" y1="1" y2="0">                            <stop id="stop1" stop-color="rgba(248, 117, 55, 1)" offset="0%"></stop>                            <stop id="stop2" stop-color="rgba(251, 168, 31, 1)" offset="100%"></stop>                        </linearGradient>                    </defs>                <path fill="url(#sw-gradient)" d="M22.8,-36.3C28.7,-31.6,32.2,-24,36,-16.3C39.8,-8.6,44,-0.8,44.2,7.3C44.5,15.4,40.8,23.8,35,30.2C29.2,36.6,21.3,40.9,13.3,41.7C5.3,42.4,-2.8,39.6,-10.9,37.1C-19,34.7,-27.3,32.7,-33.1,27.7C-39,22.7,-42.5,14.7,-43.9,6.2C-45.3,-2.3,-44.6,-11.2,-41.1,-18.8C-37.6,-26.3,-31.3,-32.6,-24,-36.6C-16.6,-40.7,-8.3,-42.5,0.1,-42.6C8.4,-42.7,16.8,-41,22.8,-36.3Z" width="100%" height="100%" transform="translate(50 50)" stroke-width="0" style="transition: all 0.3s ease 0s;"></path>              </svg>